<svg xmlns="http://www.w3.org/2000/svg" width="32" height="32" viewBox="0 0 32 32" role="img" aria-label="">
  <g stroke="#234" stroke-width="1.5" stroke-linecap="round" stroke-linejoin="round">
    <g transform="translate(3 7)">
      <circle cx="10" cy="12" r="3" fill="#ffffff"/>
      <path d="M10 9c-4-4-8-2-8 1 0 2 2 4 6 4" fill="#4ddc3a"/>
      <path d="M10 9c4-4 8-2 8 1 0 2-2 4-6 4" fill="#4ddc3a"/>
    </g>
    <g transform="translate(11 3)">
      <circle cx="10" cy="12" r="3" fill="#ffffff"/>
      <path d="M10 9c-4-4-8-2-8 1 0 2 2 4 6 4" fill="#ff9b3a"/>
      <path d="M10 9c4-4 8-2 8 1 0 2-2 4-6 4" fill="#ff9b3a"/>
    </g>
  </g>
</svg>
